<svg role="img" aria-labelledby="title logo-desc" viewBox="0 0 1260 240" version="1.1" xmlns="http://www.w3.org/2000/svg" desc="Created with imagetracer.js version 1.2.6" ><title id="title">Tesseract Marketing logo</title><desc id="logo-desc">Transparent-background vector trace of the supplied logo.</desc><path fill="rgb(0,0,0)" stroke="rgb(0,0,0)" stroke-width="0" opacity="0" d="M 0 0 L 1259.5 0 L 1260 0.5 L 1260 240 L 0.5 240 L 0 239.5 L 0 0 Z M 906 14 L 902 19 L 900 24 L 898 26 L 893 37 L 891 39 L 888 46 L 886 48 L 882 57 L 880 59 L 876 68 L 874 70 L 871 77 L 869 79 L 864 90 L 862 92 L 860 97 L 858 99 L 854 108 L 852 110 L 847 121 L 845 123 L 842 130 L 840 132 L 835 142 Q 834 143 836 143 L 860 143 L 861 142 L 864 135 L 866 133 L 870 124 L 872 122 L 875 115 L 877 113 L 880 106 L 882 104 L 888 91 L 890 89 L 894 80 L 896 78 L 899 71 L 901 69 L 906 59 L 909 64 L 914 75 L 916 77 L 919 84 L 921 86 L 924 93 L 926 95 L 930 104 L 932 106 L 935 113 L 937 115 L 939 120 L 941 122 L 943 127 L 945 129 L 948 136 L 950 138 L 952 143 L 978 143 L 978 143 L 975 137 L 973 135 L 971 130 L 969 128 L 968 125 L 966 123 L 962 114 L 960 112 L 957 105 L 955 103 L 952 96 L 950 94 L 947 87 L 945 85 L 942 78 L 940 76 L 937 69 L 935 67 L 933 62 L 931 60 L 926 49 L 922 44 L 918 35 L 916 33 L 913 26 L 911 24 L 907 16 Q 908 13 906 14 Z M 27 15 L 27 37 L 57 37 L 58 38 Q 61 39 62 37 L 71 37 L 72 39 L 72 143 L 94 143 L 94 143 L 94 39 L 96 37 L 139 37 L 139 31 L 140 30 Q 141 26 139 26 L 139 16 L 139 15 L 27 15 Z M 163 15 L 162 16 L 176 36 Q 175 37 177 37 L 254 37 L 261 28 L 262 25 L 268 17 Q 268 15 268 15 L 163 15 Z M 324 15 L 323 16 L 320 16 Q 319 18 317 17 L 308 22 L 305 25 L 303 25 L 303 27 L 297 34 L 294 40 Q 295 42 293 43 L 293 46 L 292 47 L 292 60 Q 294 60 293 64 L 298 75 L 302 79 L 302 80 L 304 80 L 308 84 L 311 85 L 315 88 L 320 89 L 321 90 L 328 90 Q 329 92 330 90 L 367 90 Q 367 92 372 91 L 376 93 L 380 98 L 381 100 L 381 102 L 382 103 L 382 109 L 379 115 L 376 118 L 372 120 L 369 120 L 368 121 L 306 121 L 306 123 L 303 127 L 302 130 L 296 138 L 294 143 L 374 143 L 375 142 L 378 142 L 379 141 L 381 141 L 385 139 L 391 134 L 392 134 L 400 124 L 402 120 L 402 118 L 403 117 L 403 114 L 404 113 L 404 98 L 403 97 L 403 94 Q 402 93 402 91 L 398 84 L 389 74 L 381 70 L 376 69 L 375 68 L 327 68 L 326 67 L 324 67 L 322 66 L 316 61 L 315 59 L 315 57 L 314 56 L 314 52 L 315 51 L 315 48 L 316 46 L 323 39 L 325 38 L 328 38 L 329 37 L 382 37 Q 383 39 384 37 L 386 38 L 389 35 L 389 34 L 392 31 L 397 23 L 402 17 Q 402 15 402 15 L 324 15 Z M 456 15 L 455 16 L 451 16 Q 450 18 448 17 L 439 22 L 428 34 L 426 38 L 426 40 L 424 43 L 424 46 L 423 47 L 423 59 Q 425 59 424 64 L 430 76 L 438 83 L 442 85 L 444 87 L 446 87 L 449 89 L 452 89 L 453 90 L 457 90 L 458 91 L 471 91 L 472 90 L 492 90 L 493 91 L 503 91 L 507 93 L 512 99 Q 512 101 513 102 L 513 110 L 511 114 L 506 119 L 504 120 L 501 120 L 500 121 L 437 121 L 436 125 L 432 130 L 431 133 L 425 141 L 425 142 Q 423 142 425 143 L 505 143 L 506 142 L 509 142 Q 509 141 512 141 L 521 136 L 530 126 L 535 115 L 535 109 L 536 108 L 536 103 L 535 102 L 535 97 Q 533 96 534 93 L 528 82 L 523 76 L 519 74 L 517 72 L 515 71 L 513 71 L 510 69 L 507 69 L 506 68 L 458 68 L 457 67 L 455 67 L 453 66 Q 448 63 446 59 L 446 48 L 447 46 L 454 39 L 456 38 L 459 38 L 460 37 L 516 37 L 518 38 L 521 35 L 521 34 L 524 31 L 524 30 L 531 21 L 531 20 L 534 17 Q 534 15 534 15 L 456 15 Z M 567 15 L 567 17 L 574 26 L 575 29 L 579 34 L 579 35 L 582 37 L 659 37 L 659 36 L 664 30 L 666 26 L 668 24 L 669 21 L 673 16 L 673 15 L 567 15 Z M 696 15 L 696 37 L 756 37 L 757 38 L 775 38 L 782 42 L 787 51 L 787 61 L 784 67 L 780 71 L 776 73 L 773 73 L 772 74 L 728 74 L 727 75 L 738 88 L 738 89 L 744 95 L 744 96 L 748 100 L 748 101 L 752 105 L 752 106 L 757 111 L 757 112 L 762 117 L 762 118 L 766 122 L 766 123 L 770 127 L 770 128 L 781 140 L 781 141 L 784 143 L 811 143 L 811 142 L 807 138 L 807 137 L 792 120 L 792 119 L 788 115 L 788 114 L 783 109 L 783 108 L 778 103 L 778 102 L 775 99 L 774 96 Q 775 94 776 96 L 777 95 L 780 95 Q 780 94 783 94 L 793 89 L 797 85 L 798 85 L 806 75 L 807 73 L 807 71 L 809 68 L 809 64 L 810 63 L 810 49 Q 808 48 809 45 L 804 34 L 801 31 L 801 30 L 792 21 L 784 17 Q 781 18 781 16 L 778 16 L 777 15 L 696 15 Z M 1042 15 L 1041 16 L 1037 16 Q 1036 18 1033 17 L 1030 19 L 1028 19 L 1020 23 L 1015 27 L 1014 27 L 1008 33 L 1006 33 L 1006 35 L 1000 41 L 998 45 L 996 47 L 992 55 L 992 57 L 990 60 L 989 67 L 988 68 L 988 75 L 987 76 L 987 84 L 988 85 L 988 92 L 990 96 L 990 99 L 992 103 L 992 105 L 996 113 L 1000 118 L 1000 119 L 1004 123 L 1004 124 L 1010 129 L 1011 129 L 1020 136 L 1026 139 L 1031 140 L 1032 141 L 1034 141 L 1035 142 L 1039 142 L 1040 143 L 1108 143 L 1107 140 L 1101 132 L 1097 124 L 1095 121 L 1044 121 L 1043 120 L 1040 120 L 1036 118 L 1034 118 L 1026 113 L 1018 106 Q 1018 102 1015 101 L 1015 99 L 1012 93 L 1012 90 L 1011 89 L 1011 72 Q 1013 71 1012 68 L 1013 67 L 1013 64 L 1016 58 L 1021 52 L 1021 51 L 1032 42 L 1036 40 L 1038 40 L 1039 39 L 1041 39 L 1042 38 L 1046 38 L 1047 37 L 1092 37 L 1092 36 L 1094 34 L 1094 33 L 1097 30 L 1099 26 L 1106 17 Q 1106 15 1106 15 L 1042 15 Z M 1130 15 L 1130 17 L 1126 24 L 1126 26 L 1124 29 L 1124 31 L 1121 36 L 1121 37 L 1152 37 L 1153 38 L 1155 37 L 1169 37 L 1170 39 L 1170 143 L 1171 143 L 1191 143 L 1191 41 L 1192 40 Q 1192 37 1193 37 L 1236 37 L 1236 16 L 1236 15 L 1130 15 Z M 165 68 L 165 90 L 167 91 L 168 90 L 254 90 L 255 89 L 255 69 L 255 68 L 165 68 Z M 569 68 L 569 91 L 583 91 L 584 90 L 589 90 L 590 91 L 606 91 L 607 90 L 659 90 L 659 69 L 659 68 L 569 68 Z M 906 112 L 899 126 L 897 128 L 894 135 L 892 137 L 890 142 L 915 142 L 916 143 L 920 143 L 921 142 L 923 142 L 921 138 L 919 136 L 917 131 L 915 129 L 914 126 L 912 124 L 910 119 L 906 112 Z M 165 121 L 165 143 L 166 143 L 268 143 L 268 142 L 255 123 Q 255 121 255 121 L 165 121 Z M 569 121 L 569 143 L 672 143 L 672 143 L 660 124 L 658 121 L 569 121 Z M 1177 189 L 1176 190 L 1171 190 L 1165 193 L 1160 198 L 1158 202 L 1158 214 L 1160 218 L 1166 223 L 1172 226 L 1182 226 L 1183 225 L 1185 225 L 1189 223 L 1191 221 L 1191 207 L 1177 207 L 1177 211 L 1186 211 L 1186 219 L 1183 221 Q 1179 220 1179 222 L 1172 221 L 1168 219 L 1165 217 L 1163 213 L 1163 203 L 1164 201 L 1169 196 L 1173 194 L 1182 194 L 1187 198 L 1188 198 L 1190 196 L 1190 195 L 1188 192 L 1184 190 L 1178 190 L 1177 189 Z M 70 190 L 70 225 L 72 226 L 75 226 L 75 201 L 76 200 L 77 202 L 82 213 L 84 215 L 87 221 Q 86 223 90 222 L 91 221 L 91 219 L 93 217 L 97 208 L 99 206 L 101 202 L 101 200 Q 102 198 103 201 L 102 203 L 102 210 L 103 211 L 103 226 Q 106 227 107 225 L 107 191 L 107 190 L 101 190 L 101 192 L 96 202 L 94 204 L 90 213 L 89 214 L 86 211 L 79 196 L 76 192 Q 76 190 76 190 L 70 190 Z M 227 190 L 227 192 L 224 197 L 224 199 L 218 210 L 218 212 L 212 224 L 212 226 L 217 226 Q 217 224 218 224 L 218 222 L 220 219 Q 219 217 221 217 L 240 217 L 240 220 L 242 224 Q 243 227 248 226 Q 249 224 247 224 L 247 222 L 244 217 L 244 215 L 239 206 L 239 204 L 233 192 Q 233 190 233 190 L 227 190 Z M 355 190 L 355 225 L 357 226 Q 360 227 360 225 L 360 214 L 371 214 L 380 226 L 385 226 L 385 226 L 376 214 L 379 212 L 383 208 Q 383 205 384 205 L 384 199 L 382 195 L 380 192 L 376 190 L 355 190 Z M 492 190 L 492 225 Q 492 227 496 226 L 497 225 L 497 215 L 503 210 L 504 210 L 509 217 L 509 218 L 515 224 L 515 225 Q 517 225 518 226 Q 521 227 521 225 L 516 219 L 516 218 L 506 207 L 520 192 L 520 190 L 516 190 L 498 209 L 497 209 L 497 192 L 496 190 L 492 190 Z M 630 190 L 630 225 L 632 226 L 654 226 Q 656 225 655 222 L 641 222 L 640 221 L 635 221 L 635 218 L 634 217 L 634 211 L 636 209 L 653 209 Q 653 209 653 207 L 652 205 L 635 205 Q 636 202 634 202 L 634 196 L 636 194 L 655 194 L 655 191 L 655 190 L 630 190 Z M 761 190 Q 760 193 763 194 L 773 194 L 773 199 Q 775 200 773 201 L 773 220 L 774 221 L 774 226 L 778 226 L 778 209 L 779 208 L 779 199 L 778 198 L 779 196 Q 778 194 780 194 L 791 194 L 791 191 L 791 190 L 761 190 Z M 904 190 L 902 192 L 902 225 Q 903 227 906 226 L 907 225 L 907 192 Q 907 190 904 190 Z M 1020 190 L 1020 225 Q 1020 227 1024 226 L 1025 225 L 1025 199 L 1026 198 L 1034 209 L 1036 213 L 1043 221 L 1043 222 L 1048 226 Q 1051 227 1051 225 L 1051 191 L 1051 190 L 1046 190 L 1046 216 L 1046 216 L 1031 199 L 1028 194 L 1025 190 L 1020 190 Z " /><path fill="rgb(0,0,0)" stroke="rgb(0,0,0)" stroke-width="0" opacity="0" d="M 360 194 L 372.5 194 L 378 197.5 L 379 199.5 L 379 204.5 Q 377.5 205.3 378 207 L 376.5 207 L 374.5 209 Q 372 208.5 371.5 210 L 360 210 L 360 194 Z " /><path fill="rgb(0,0,0)" stroke="rgb(0,0,0)" stroke-width="0" opacity="0" d="M 229 196 Q 232 194.8 231 198.5 L 235 205.5 L 235 207.5 L 237 211.5 L 236.5 212 L 223 212 Q 222.5 210.3 224 209.5 L 224 207.5 L 227 202.5 L 227 200.5 L 229 197.5 L 229 196 Z " /><path fill="rgb(251,251,251)" stroke="rgb(251,251,251)" stroke-width="0" opacity="1" d="M 905.5 14 Q 907.8 13.3 907 15.5 L 911 23.5 L 913 25.5 L 916 32.5 L 918 34.5 L 922 43.5 L 926 48.5 L 931 59.5 L 933 61.5 L 935 66.5 L 937 68.5 L 940 75.5 L 942 77.5 L 945 84.5 L 947 86.5 L 950 93.5 L 952 95.5 L 955 102.5 L 957 104.5 L 960 111.5 L 962 113.5 L 966 122.5 L 968 124.5 L 969 127.5 L 971 129.5 L 973 134.5 L 975 136.5 L 978 142.5 L 977.5 143 L 952 143 L 950 137.5 L 948 135.5 L 945 128.5 L 943 126.5 L 941 121.5 L 939 119.5 L 937 114.5 L 935 112.5 L 932 105.5 L 930 103.5 L 926 94.5 L 924 92.5 L 921 85.5 L 919 83.5 L 916 76.5 L 914 74.5 L 909 63.5 L 905.5 59 L 901 68.5 L 899 70.5 L 896 77.5 L 894 79.5 L 890 88.5 L 888 90.5 L 882 103.5 L 880 105.5 L 877 112.5 L 875 114.5 L 872 121.5 L 870 123.5 L 866 132.5 L 864 134.5 L 861 141.5 L 859.5 143 L 835.5 143 Q 834.5 143.4 835 141.5 L 840 131.5 L 842 129.5 L 845 122.5 L 847 120.5 L 852 109.5 L 854 107.5 L 858 98.5 L 860 96.5 L 862 91.5 L 864 89.5 L 869 78.5 L 871 76.5 L 874 69.5 L 876 67.5 L 880 58.5 L 882 56.5 L 886 47.5 L 888 45.5 L 891 38.5 L 893 36.5 L 898 25.5 L 900 23.5 L 902 18.5 L 905.5 14 Z " /><path fill="rgb(251,251,251)" stroke="rgb(251,251,251)" stroke-width="0" opacity="1" d="M 27 15 L 138.5 15 L 139 15.5 L 139 25.5 Q 140.8 26.3 140 29.5 L 139 30.5 L 139 37 L 95.5 37 L 94 38.5 L 94 142.5 L 93.5 143 L 72 143 L 72 38.5 L 70.5 37 L 61.5 37 Q 60.7 38.8 57.5 38 L 56.5 37 L 27 37 L 27 15 Z " /><path fill="rgb(251,251,251)" stroke="rgb(251,251,251)" stroke-width="0" opacity="1" d="M 162.5 15 L 267.5 15 Q 268.5 14.6 268 16.5 L 262 24.5 L 261 27.5 L 253.5 37 L 176.5 37 Q 175.5 37.4 176 35.5 L 162 15.5 L 162.5 15 Z " /><path fill="rgb(251,251,251)" stroke="rgb(251,251,251)" stroke-width="0" opacity="1" d="M 323.5 15 L 401.5 15 Q 402.5 14.6 402 16.5 L 397 22.5 L 392 30.5 L 389 33.5 L 389 34.5 L 385.5 38 L 383.5 37 Q 382.5 39 381.5 37 L 328.5 37 L 327.5 38 L 324.5 38 L 322.5 39 L 316 45.5 L 315 47.5 L 315 50.5 L 314 51.5 L 314 55.5 L 315 56.5 L 315 58.5 L 316 60.5 L 321.5 66 L 323.5 67 L 325.5 67 L 326.5 68 L 374.5 68 L 375.5 69 L 380.5 70 L 388.5 74 L 398 83.5 L 402 90.5 Q 401.5 93 403 93.5 L 403 96.5 L 404 97.5 L 404 112.5 L 403 113.5 L 403 116.5 L 402 117.5 L 402 119.5 L 400 123.5 L 391.5 134 L 390.5 134 L 384.5 139 L 380.5 141 L 378.5 141 L 377.5 142 L 374.5 142 L 373.5 143 L 294 143 L 296 137.5 L 302 129.5 L 303 126.5 L 306 122.5 L 306 121 L 367.5 121 L 368.5 120 L 371.5 120 L 375.5 118 L 379 114.5 L 382 108.5 L 382 102.5 L 381 101.5 L 381 99.5 L 380 97.5 L 375.5 93 L 371.5 91 Q 367.5 92 366.5 90 L 329.5 90 Q 328.5 92 327.5 90 L 320.5 90 L 319.5 89 L 314.5 88 L 310.5 85 L 307.5 84 L 303.5 80 L 302 80 L 302 78.5 L 298 74.5 L 293 63.5 Q 293.8 60.3 292 59.5 L 292 46.5 L 293 45.5 L 293 42.5 Q 294.5 42 294 39.5 L 297 33.5 L 303 26.5 L 303 25 L 304.5 25 L 307.5 22 L 316.5 17 Q 319 17.5 319.5 16 L 322.5 16 L 323.5 15 Z " /><path fill="rgb(251,251,251)" stroke="rgb(251,251,251)" stroke-width="0" opacity="1" d="M 455.5 15 L 533.5 15 Q 534.5 14.6 534 16.5 L 531 19.5 L 531 20.5 L 524 29.5 L 524 30.5 L 521 33.5 L 521 34.5 L 517.5 38 L 515.5 37 L 459.5 37 L 458.5 38 L 455.5 38 L 453.5 39 L 447 45.5 L 446 47.5 L 446 58.5 Q 448.1 63.4 452.5 66 L 454.5 67 L 456.5 67 L 457.5 68 L 505.5 68 L 506.5 69 L 509.5 69 L 512.5 71 L 514.5 71 L 516.5 72 L 518.5 74 L 522.5 76 L 528 81.5 L 534 92.5 Q 533.3 95.7 535 96.5 L 535 101.5 L 536 102.5 L 536 107.5 L 535 108.5 L 535 114.5 L 530 125.5 L 520.5 136 L 511.5 141 Q 509 140.5 508.5 142 L 505.5 142 L 504.5 143 L 424.5 143 Q 423.2 142.2 425 141.5 L 425 140.5 L 431 132.5 L 432 129.5 L 436 124.5 L 437 121 L 499.5 121 L 500.5 120 L 503.5 120 L 505.5 119 L 511 113.5 L 513 109.5 L 513 101.5 Q 511.5 101 512 98.5 L 506.5 93 L 502.5 91 L 492.5 91 L 491.5 90 L 471.5 90 L 470.5 91 L 457.5 91 L 456.5 90 L 452.5 90 L 451.5 89 L 448.5 89 L 445.5 87 L 443.5 87 L 441.5 85 L 437.5 83 L 430 75.5 L 424 63.5 Q 425 59.5 423 58.5 L 423 46.5 L 424 45.5 L 424 42.5 L 426 39.5 L 426 37.5 L 428 33.5 L 438.5 22 L 447.5 17 Q 450 17.5 450.5 16 L 454.5 16 L 455.5 15 Z " /><path fill="rgb(251,251,251)" stroke="rgb(251,251,251)" stroke-width="0" opacity="1" d="M 567 15 L 672.5 15 L 673 15.5 L 669 20.5 L 668 23.5 L 666 25.5 L 664 29.5 L 659 35.5 L 659 37 L 581.5 37 L 579 34.5 L 579 33.5 L 575 28.5 L 574 25.5 L 567 16.5 L 567 15 Z " /><path fill="rgb(251,251,251)" stroke="rgb(251,251,251)" stroke-width="0" opacity="1" d="M 696 15 L 776.5 15 L 777.5 16 L 780.5 16 Q 781 17.5 783.5 17 L 791.5 21 L 801 29.5 L 801 30.5 L 804 33.5 L 809 44.5 Q 808.3 47.8 810 48.5 L 810 62.5 L 809 63.5 L 809 67.5 L 807 70.5 L 807 72.5 L 806 74.5 L 797.5 85 L 796.5 85 L 792.5 89 L 782.5 94 Q 780 93.5 779.5 95 L 776.5 95 L 775.5 96 Q 774.7 94.2 774 95.5 L 775 98.5 L 778 101.5 L 778 102.5 L 783 107.5 L 783 108.5 L 788 113.5 L 788 114.5 L 792 118.5 L 792 119.5 L 807 136.5 L 807 137.5 L 811 141.5 L 811 143 L 783.5 143 L 781 140.5 L 781 139.5 L 770 127.5 L 770 126.5 L 766 122.5 L 766 121.5 L 762 117.5 L 762 116.5 L 757 111.5 L 757 110.5 L 752 105.5 L 752 104.5 L 748 100.5 L 748 99.5 L 744 95.5 L 744 94.5 L 738 88.5 L 738 87.5 L 727 74.5 L 727.5 74 L 771.5 74 L 772.5 73 L 775.5 73 L 779.5 71 L 784 66.5 L 787 60.5 L 787 50.5 L 781.5 42 L 774.5 38 L 756.5 38 L 755.5 37 L 696 37 L 696 15 Z " /><path fill="rgb(251,251,251)" stroke="rgb(251,251,251)" stroke-width="0" opacity="1" d="M 1041.5 15 L 1105.5 15 Q 1106.5 14.6 1106 16.5 L 1099 25.5 L 1097 29.5 L 1094 32.5 L 1094 33.5 L 1092 35.5 L 1092 37 L 1046.5 37 L 1045.5 38 L 1041.5 38 L 1040.5 39 L 1038.5 39 L 1037.5 40 L 1035.5 40 L 1031.5 42 L 1021 50.5 L 1021 51.5 L 1016 57.5 L 1013 63.5 L 1013 66.5 L 1012 67.5 Q 1012.8 70.8 1011 71.5 L 1011 88.5 L 1012 89.5 L 1012 92.5 L 1015 98.5 L 1015 100.5 Q 1017.5 102 1018 105.5 L 1025.5 113 L 1033.5 118 L 1035.5 118 L 1039.5 120 L 1042.5 120 L 1043.5 121 L 1094.5 121 L 1097 123.5 L 1101 131.5 L 1107 139.5 L 1108 143 L 1039.5 143 L 1038.5 142 L 1034.5 142 L 1033.5 141 L 1031.5 141 L 1030.5 140 L 1025.5 139 L 1019.5 136 L 1010.5 129 L 1009.5 129 L 1004 123.5 L 1004 122.5 L 1000 118.5 L 1000 117.5 L 996 112.5 L 992 104.5 L 992 102.5 L 990 98.5 L 990 95.5 L 988 91.5 L 988 84.5 L 987 83.5 L 987 75.5 L 988 74.5 L 988 67.5 L 989 66.5 L 990 59.5 L 992 56.5 L 992 54.5 L 996 46.5 L 998 44.5 L 1000 40.5 L 1006 34.5 L 1006 33 L 1007.5 33 L 1013.5 27 L 1014.5 27 L 1019.5 23 L 1027.5 19 L 1029.5 19 L 1032.5 17 Q 1035.8 17.8 1036.5 16 L 1040.5 16 L 1041.5 15 Z " /><path fill="rgb(251,251,251)" stroke="rgb(251,251,251)" stroke-width="0" opacity="1" d="M 1130 15 L 1235.5 15 L 1236 15.5 L 1236 37 L 1192.5 37 Q 1191.8 36.8 1192 39.5 L 1191 40.5 L 1191 143 L 1170.5 143 L 1170 142.5 L 1170 38.5 L 1168.5 37 L 1154.5 37 L 1152.5 38 L 1151.5 37 L 1121 37 L 1121 35.5 L 1124 30.5 L 1124 28.5 L 1126 25.5 L 1126 23.5 L 1130 16.5 L 1130 15 Z " /><path fill="rgb(251,251,251)" stroke="rgb(251,251,251)" stroke-width="0" opacity="1" d="M 165 68 L 254.5 68 L 255 68.5 L 255 88.5 L 253.5 90 L 167.5 90 L 166.5 91 L 165 89.5 L 165 68 Z " /><path fill="rgb(251,251,251)" stroke="rgb(251,251,251)" stroke-width="0" opacity="1" d="M 569 68 L 658.5 68 L 659 68.5 L 659 90 L 606.5 90 L 605.5 91 L 589.5 91 L 588.5 90 L 583.5 90 L 582.5 91 L 569 91 L 569 68 Z " /><path fill="rgb(251,251,251)" stroke="rgb(251,251,251)" stroke-width="0" opacity="1" d="M 165 121 L 254.5 121 Q 255.5 120.6 255 122.5 L 268 141.5 L 268 143 L 165.5 143 L 165 142.5 L 165 121 Z " /><path fill="rgb(251,251,251)" stroke="rgb(251,251,251)" stroke-width="0" opacity="1" d="M 569 121 L 657.5 121 L 660 123.5 L 672 142.5 L 671.5 143 L 569 143 L 569 121 Z " /><path fill="rgb(250,149,3)" stroke="rgb(250,149,3)" stroke-width="0" opacity="1" d="M 905.5 112 L 910 118.5 L 912 123.5 L 914 125.5 L 915 128.5 L 917 130.5 L 919 135.5 L 921 137.5 L 923 141.5 L 920.5 142 L 919.5 143 L 915.5 143 L 914.5 142 L 890 142 L 892 136.5 L 894 134.5 L 897 127.5 L 899 125.5 L 905.5 112 Z " /><path fill="rgb(250,149,3)" stroke="rgb(250,149,3)" stroke-width="0" opacity="1" d="M 1176.5 189 L 1177.5 190 L 1183.5 190 L 1187.5 192 L 1190 194.5 L 1190 195.5 L 1187.5 198 L 1186.5 198 L 1181.5 194 L 1172.5 194 L 1168.5 196 L 1164 200.5 L 1163 202.5 L 1163 212.5 L 1165 216.5 L 1167.5 219 L 1171.5 221 L 1178.5 222 Q 1179.3 220.3 1182.5 221 L 1186 218.5 L 1186 211 L 1177 211 L 1177 207 L 1191 207 L 1191 220.5 L 1188.5 223 L 1184.5 225 L 1182.5 225 L 1181.5 226 L 1171.5 226 L 1165.5 223 L 1160 217.5 L 1158 213.5 L 1158 201.5 L 1160 197.5 L 1164.5 193 L 1170.5 190 L 1175.5 190 L 1176.5 189 Z " /><path fill="rgb(250,149,3)" stroke="rgb(250,149,3)" stroke-width="0" opacity="1" d="M 70 190 L 75.5 190 Q 76.5 189.6 76 191.5 L 79 195.5 L 86 210.5 L 88.5 214 L 90 212.5 L 94 203.5 L 96 201.5 L 101 191.5 L 101 190 L 106.5 190 L 107 190.5 L 107 224.5 Q 106 226.8 103 226 L 103 210.5 L 102 209.5 L 102 202.5 L 103 200.5 Q 102 198 101 199.5 L 101 201.5 L 99 205.5 L 97 207.5 L 93 216.5 L 91 218.5 L 91 220.5 L 89.5 222 Q 86.2 223.1 87 220.5 L 84 214.5 L 82 212.5 L 77 201.5 L 75.5 200 L 75 200.5 L 75 226 L 71.5 226 L 70 224.5 L 70 190 Z " /><path fill="rgb(250,149,3)" stroke="rgb(250,149,3)" stroke-width="0" opacity="1" d="M 227 190 L 232.5 190 Q 233.5 189.6 233 191.5 L 239 203.5 L 239 205.5 L 244 214.5 L 244 216.5 L 247 221.5 L 247 223.5 Q 248.5 224.3 248 226 Q 243.3 227 242 223.5 L 240 219.5 L 240 217 L 220.5 217 Q 219.5 216.6 220 218.5 L 218 221.5 L 218 223.5 Q 216.5 224.3 217 226 L 212 226 L 212 223.5 L 218 211.5 L 218 209.5 L 224 198.5 L 224 196.5 L 227 191.5 L 227 190 Z M 229 196 L 229 198 L 227 201 L 227 203 L 224 208 L 224 210 Q 223 210 223 212 L 237 212 L 237 212 L 235 208 L 235 206 L 231 199 Q 232 195 229 196 Z " /><path fill="rgb(250,149,3)" stroke="rgb(250,149,3)" stroke-width="0" opacity="1" d="M 355 190 L 375.5 190 L 379.5 192 L 382 194.5 L 384 198.5 L 384 204.5 Q 382.5 205 383 207.5 L 378.5 212 L 376 213.5 L 385 225.5 L 384.5 226 L 379.5 226 L 370.5 214 L 360 214 L 360 224.5 Q 359.5 226.5 356.5 226 L 355 224.5 L 355 190 Z M 360 194 L 360 210 L 372 210 Q 372 209 375 209 L 377 207 L 378 207 Q 378 205 379 205 L 379 200 L 378 198 L 373 194 L 360 194 Z " /><path fill="rgb(250,149,3)" stroke="rgb(250,149,3)" stroke-width="0" opacity="1" d="M 492 190 L 495.5 190 L 497 191.5 L 497 208.5 L 497.5 209 L 515.5 190 L 520 190 L 520 191.5 L 506 206.5 L 516 217.5 L 516 218.5 L 521 224.5 Q 520.5 226.5 517.5 226 Q 516.8 224.5 515 225 L 515 223.5 L 509 217.5 L 509 216.5 L 503.5 210 L 502.5 210 L 497 214.5 L 497 224.5 L 495.5 226 Q 492.5 226.5 492 224.5 L 492 190 Z " /><path fill="rgb(250,149,3)" stroke="rgb(250,149,3)" stroke-width="0" opacity="1" d="M 630 190 L 654.5 190 L 655 190.5 L 655 194 L 635.5 194 L 634 195.5 L 634 201.5 Q 635.8 202.4 635 205 L 651.5 205 L 653 206.5 Q 653.3 209.3 652.5 209 L 635.5 209 L 634 210.5 L 634 216.5 L 635 217.5 L 635 221 L 639.5 221 L 640.5 222 L 655 222 Q 655.8 225 653.5 226 L 631.5 226 L 630 224.5 L 630 190 Z " /><path fill="rgb(250,149,3)" stroke="rgb(250,149,3)" stroke-width="0" opacity="1" d="M 761 190 L 790.5 190 L 791 190.5 L 791 194 L 779.5 194 Q 778.5 193.6 779 195.5 L 778 197.5 L 779 198.5 L 779 207.5 L 778 208.5 L 778 226 L 774 226 L 774 220.5 L 773 219.5 L 773 200.5 Q 775 199.5 773 198.5 L 773 194 L 762.5 194 Q 760.3 193 761 190 Z " /><path fill="rgb(250,149,3)" stroke="rgb(250,149,3)" stroke-width="0" opacity="1" d="M 903.5 190 Q 906.5 189.5 907 191.5 L 907 224.5 L 905.5 226 Q 902.5 226.5 902 224.5 L 902 191.5 L 903.5 190 Z " /><path fill="rgb(250,149,3)" stroke="rgb(250,149,3)" stroke-width="0" opacity="1" d="M 1020 190 L 1024.5 190 L 1028 193.5 L 1031 198.5 L 1045.5 216 L 1046 215.5 L 1046 190 L 1050.5 190 L 1051 190.5 L 1051 224.5 Q 1050.5 226.5 1047.5 226 L 1043 221.5 L 1043 220.5 L 1036 212.5 L 1034 208.5 L 1025.5 198 L 1025 198.5 L 1025 224.5 L 1023.5 226 Q 1020.5 226.5 1020 224.5 L 1020 190 Z " /></svg>