<svg role="img" aria-labelledby="title logo-desc" viewBox="0 0 330 220" version="1.1" xmlns="http://www.w3.org/2000/svg" desc="Created with imagetracer.js version 1.2.6" ><title id="title">Tesseract Marketing logo</title><desc id="logo-desc">Transparent-background vector trace of the supplied logo.</desc><path fill="rgb(0,0,0)" stroke="rgb(0,0,0)" stroke-width="0" opacity="0" d="M 0 0 L 330 0 L 330 220 L 0 220 L 0 0 Z M 40 20 L 40 22 L 97 78 L 144 78 L 144 79 Q 142 80 143 84 L 142 85 L 142 89 L 141 90 L 141 97 L 140 98 L 140 106 L 139 107 L 139 124 L 138 125 L 138 140 L 195 196 L 196 196 L 196 104 Q 198 103 197 100 L 201 92 L 209 84 L 216 80 L 221 79 L 222 78 L 248 78 L 256 70 Q 258 71 257 69 L 261 65 L 262 65 L 262 64 L 293 33 Q 295 34 294 32 L 305 21 L 305 20 L 217 20 L 216 21 L 211 21 Q 210 23 207 22 L 203 24 L 201 24 L 200 25 L 197 25 L 181 33 L 172 40 L 171 40 L 158 53 L 158 54 L 156 54 L 156 54 L 156 21 L 156 20 L 40 20 Z " /><path fill="rgb(250,149,3)" stroke="rgb(250,149,3)" stroke-width="0" opacity="1" d="M 40 20 L 155.5 20 L 156 20.5 L 156 53.5 L 156 54 L 158 54 L 158 52.5 L 170.5 40 L 171.5 40 L 180.5 33 L 196.5 25 L 199.5 25 L 200.5 24 L 202.5 24 L 206.5 22 Q 209.8 22.8 210.5 21 L 215.5 21 L 216.5 20 L 304.5 20 L 305 20.5 L 294 31.5 Q 294.8 33.8 292.5 33 L 262 63.5 L 262 65 L 260.5 65 L 257 68.5 Q 257.8 70.8 255.5 70 L 247.5 78 L 221.5 78 L 220.5 79 L 215.5 80 L 208.5 84 L 201 91.5 L 197 99.5 Q 197.7 102.8 196 103.5 L 196 196 L 194.5 196 L 138 139.5 L 138 124.5 L 139 123.5 L 139 106.5 L 140 105.5 L 140 97.5 L 141 96.5 L 141 89.5 L 142 88.5 L 142 84.5 L 143 83.5 Q 142 79.5 144 78.5 L 143.5 78 L 96.5 78 L 40 21.5 L 40 20 Z " /></svg>